<svg xmlns="http://www.w3.org/2000/svg" width="32" height="32" fill="none" viewBox="0 0 24 18"><path fill="#000" fill-rule="evenodd" d="m21.92 3.54 2.05 8.6a.58.58 0 0 1-.09.53.56.56 0 0 1-.48.22h-1.63a4.73 4.73 0 0 1-4.67 4.2c-2.41 0-4.4-1.84-4.68-4.2h-.8a4.78 4.78 0 0 1-4.72 4.25 4.78 4.78 0 0 1-4.72-4.26H.59a.55.55 0 0 1-.47-.22.58.58 0 0 1-.1-.52l2.06-8.6A3.26 3.26 0 0 1 5.48.86c.16 0 .31.07.43.18a.6.6 0 0 1 0 .86.59.59 0 0 1-.42.17c-1.92 0-2.22 1.5-2.24 1.67l-1.9 7.95h.84c.3-2.37 2.3-4.2 4.71-4.2a4.78 4.78 0 0 1 4.72 4.2h.81a4.73 4.73 0 0 1 4.67-4.15c2.4 0 4.37 1.81 4.67 4.16v-.02h.87l-1.9-7.94c-.02-.16-.3-1.67-2.23-1.67a.59.59 0 0 1-.42-.17.6.6 0 0 1 0-.86.59.59 0 0 1 .42-.18 3.26 3.26 0 0 1 3.41 2.68ZM10.44 12.9a3.7 3.7 0 0 0 0-1.2A3.6 3.6 0 0 0 6.9 8.67a3.6 3.6 0 0 0-3.54 4.2 3.6 3.6 0 0 0 3.54 3.07 3.6 3.6 0 0 0 3.54-3.06Zm10.15 0a3.56 3.56 0 0 0-3.5-4.16 3.56 3.56 0 0 0-3.48 4.16c.27 1.7 1.73 3 3.49 3 1.76 0 3.22-1.3 3.49-3Z" clip-rule="evenodd"/></svg>